<svg width="1194" height="400" viewBox="0 0 1194 400" fill="none" xmlns="http://www.w3.org/2000/svg">
  <g clip-path="url(#clip0_1_2)">
    <path d="M194 300C247.019 300 290 257.019 290 204C290 150.981 247.019 108 194 108C140.981 108 98 150.981 98 204C98 257.019 140.981 300 194 300Z" stroke="#1B3B36" stroke-width="12"/>
    <path d="M194 85C128.562 85 76 137.562 76 203C76 268.438 128.562 321 194 321C259.438 321 312 268.438 312 203C312 137.562 259.438 85 194 85ZM194 309C135.196 309 88 261.804 88 203C88 144.196 135.196 97 194 97C252.804 97 300 144.196 300 203C300 261.804 252.804 309 194 309Z" fill="#1B3B36"/>
    <path d="M194 147C163.624 147 139 171.624 139 202C139 232.376 163.624 257 194 257C224.376 257 249 232.376 249 202C249 171.624 224.376 147 194 147Z" fill="#1B3B36"/>
    <path d="M400 180H1194V220H400V180Z" fill="#1B3B36"/>
  </g>
  <defs>
    <clipPath id="clip0_1_2">
      <rect width="1194" height="400" fill="white"/>
    </clipPath>
  </defs>
</svg>